<?xml version="1.0" encoding="UTF-8"?>
<svg xmlns="http://www.w3.org/2000/svg" xmlns:xlink="http://www.w3.org/1999/xlink" width="35px" height="32px" viewBox="0 0 35 32" version="1.1" style="background-color:white">
<g id="surface1">
<path style=" stroke:none;fill-rule:nonzero;fill:rgb(0%,0%,0%);fill-opacity:1;" d="M 21.503906 0.0742188 C 15.226562 0.433594 10.242188 3.078125 7.511719 7.503906 C 5.53125 10.695312 3.941406 16.441406 2.554688 25.328125 C 2.125 28.058594 1.894531 29.996094 1.863281 31.070312 L 1.847656 31.933594 L 2.480469 31.953125 C 2.964844 31.96875 3.117188 31.953125 3.117188 31.878906 C 3.117188 31 3.53125 27.65625 3.949219 24.992188 C 5.164062 17.34375 6.542969 12.144531 8.175781 9.003906 C 10.5 4.5625 14.667969 2.019531 20.652344 1.382812 C 22.144531 1.222656 24.625 1.277344 25.78125 1.492188 C 28.136719 1.929688 30.042969 2.898438 31.09375 4.171875 C 31.882812 5.132812 31.953125 5.757812 31.339844 6.28125 C 30.675781 6.851562 27.941406 7.421875 24.746094 7.664062 C 24.027344 7.714844 22.636719 7.730469 21.011719 7.707031 C 18.222656 7.667969 17.128906 7.558594 15.457031 7.175781 C 14.996094 7.070312 14.511719 6.980469 14.390625 6.980469 C 14.050781 6.980469 13.789062 7.226562 13.789062 7.550781 C 13.789062 7.96875 14.027344 8.121094 15.0625 8.351562 C 17.203125 8.832031 18.714844 8.96875 21.875 8.960938 C 24.4375 8.960938 25.847656 8.863281 27.835938 8.554688 C 28.359375 8.472656 28.828125 8.40625 28.867188 8.40625 C 28.949219 8.40625 29.164062 11.183594 29.304688 13.957031 C 29.386719 15.648438 29.394531 25 29.3125 29.15625 C 29.285156 30.597656 29.277344 31.828125 29.296875 31.871094 C 29.3125 31.941406 29.507812 31.96875 29.917969 31.96875 C 30.429688 31.96875 30.527344 31.949219 30.566406 31.835938 C 30.65625 31.566406 30.796875 20.164062 30.75 17.5625 C 30.683594 14.183594 30.519531 11.039062 30.265625 8.300781 C 30.246094 8.097656 30.28125 8.066406 30.65625 7.953125 C 31.40625 7.722656 32.054688 7.378906 32.429688 7 C 34.425781 5.058594 31.542969 1.597656 27.003906 0.496094 C 25.46875 0.121094 23.425781 -0.03125 21.503906 0.0742188 Z M 21.503906 0.0742188 "/>
<path style=" stroke:none;fill-rule:nonzero;fill:rgb(0%,0%,0%);fill-opacity:1;" d="M 16.375 3.664062 C 16.144531 3.707031 15.867188 3.953125 15.808594 4.171875 C 15.742188 4.390625 15.941406 4.765625 16.160156 4.878906 C 16.449219 5.011719 16.746094 4.960938 17 4.734375 C 17.253906 4.496094 17.292969 4.277344 17.128906 3.984375 C 17.023438 3.78125 16.628906 3.609375 16.375 3.664062 Z M 16.375 3.664062 "/>
<path style=" stroke:none;fill-rule:nonzero;fill:rgb(0%,0%,0%);fill-opacity:1;" d="M 27.867188 3.863281 C 27.421875 4.261719 27.734375 4.953125 28.359375 4.953125 C 28.925781 4.953125 29.214844 4.472656 28.933594 3.984375 C 28.730469 3.617188 28.195312 3.558594 27.867188 3.863281 Z M 27.867188 3.863281 "/>
<path style=" stroke:none;fill-rule:nonzero;fill:rgb(0%,0%,0%);fill-opacity:1;" d="M 16.679688 11.761719 C 16.472656 11.933594 16.253906 12.742188 16.242188 13.410156 L 16.226562 13.921875 L 16.171875 13.546875 C 16.136719 13.335938 16.128906 13.050781 16.144531 12.90625 C 16.179688 12.714844 16.136719 12.59375 16.007812 12.433594 C 15.785156 12.179688 15.5625 12.179688 15.292969 12.429688 C 15.085938 12.617188 15.078125 12.644531 15.128906 13.285156 C 15.160156 13.652344 15.25 14.125 15.339844 14.332031 C 15.546875 14.835938 15.472656 14.8125 15.21875 14.296875 C 14.964844 13.792969 14.726562 13.621094 14.429688 13.726562 C 14.214844 13.800781 14.117188 13.945312 14.117188 14.191406 C 14.117188 14.460938 14.675781 15.339844 15.054688 15.675781 L 15.429688 16.015625 L 14.863281 17 C 13.042969 20.1875 11.484375 22.46875 10.933594 22.746094 C 10.777344 22.828125 10.71875 22.820312 10.523438 22.6875 C 10.023438 22.347656 9.324219 21.304688 8.472656 19.625 C 8.242188 19.167969 7.886719 18.46875 7.683594 18.070312 C 7.296875 17.289062 7.101562 17.125 6.699219 17.214844 C 6.417969 17.277344 6.15625 17.546875 6.15625 17.761719 C 6.15625 17.957031 6.960938 19.632812 7.722656 21.027344 C 8.90625 23.191406 9.777344 24.046875 10.792969 24.046875 C 11.304688 24.046875 11.648438 23.878906 12.164062 23.398438 C 12.863281 22.746094 14.234375 20.71875 15.695312 18.183594 L 16.261719 17.191406 L 16.613281 17.425781 C 17.433594 17.953125 18.066406 17.824219 18.722656 17.003906 C 18.992188 16.667969 19.027344 16.359375 18.8125 16.1875 C 18.519531 15.941406 18.261719 16.03125 17.859375 16.523438 C 17.738281 16.683594 17.574219 16.808594 17.492188 16.808594 C 17.277344 16.808594 16.777344 16.277344 16.703125 15.992188 C 16.664062 15.8125 16.703125 15.65625 16.859375 15.363281 C 17.113281 14.882812 17.449219 14.671875 17.851562 14.738281 C 18.230469 14.808594 18.386719 14.964844 18.386719 15.28125 C 18.386719 15.460938 18.453125 15.601562 18.589844 15.722656 C 18.828125 15.949219 18.960938 15.953125 19.214844 15.773438 C 19.363281 15.65625 19.394531 15.566406 19.378906 15.25 C 19.347656 14.347656 18.839844 13.90625 17.753906 13.824219 L 17.238281 13.785156 L 17.238281 13.476562 C 17.238281 13.3125 17.304688 12.894531 17.375 12.554688 C 17.507812 11.960938 17.507812 11.933594 17.359375 11.78125 C 17.179688 11.59375 16.902344 11.585938 16.679688 11.761719 Z M 16.679688 11.761719 "/>
</g>
</svg>
